<svg width="32" height="32" viewBox="0 0 32 32" fill="none" xmlns="http://www.w3.org/2000/svg">
<path d="M6.53906 25.8672H20.1792" stroke="#FCFEFF" stroke-linecap="round"/>
<path d="M24.1562 25.8672H25.7638" stroke="#FCFEFF" stroke-linecap="round"/>
<path d="M16.2031 15.6326V11.0859" stroke="#2D2C2A" stroke-linecap="round"/>
<path d="M24.5295 15.9593C25.5359 14.3967 26.2879 13.3065 26.2879 11.7143C26.2879 10.1221 25.376 6.23671 25.376 6.23671C25.376 6.23671 21.8767 5.71094 20.2845 5.71094C18.6923 5.71094 17.3759 6.55672 16.0395 7.46927C16.0395 7.46927 10.6331 10.7419 9.28951 14.2193C8.09319 17.3157 9.28951 22.7193 9.28951 22.7193C9.28951 22.7193 14.694 23.9177 17.7895 22.7193C21.266 21.3733 24.5295 15.9593 24.5295 15.9593Z" stroke="#2D2C2A" stroke-linecap="round" stroke-linejoin="round"/>
<path d="M20.2891 11.7188L6.28906 25.7188" stroke="#2D2C2A" stroke-linecap="round" stroke-linejoin="round"/>
<path d="M18.175 18.875H13.375" stroke="#2D2C2A" stroke-linecap="round" stroke-linejoin="round"/>
</svg>
