<svg width="32" height="32" viewBox="0 0 32 32" fill="none" xmlns="http://www.w3.org/2000/svg">
<rect width="32" height="32" fill="white"/>
<path d="M23.329 11.8805L23.4423 11.9937C24.049 12.6004 24.3897 13.4232 24.3897 14.2811C24.3897 15.139 24.049 15.9617 23.4423 16.5684L16.5772 23.4305C16.2767 23.731 15.9199 23.9694 15.5272 24.1321C15.1345 24.2948 14.7136 24.3785 14.2886 24.3785C13.8635 24.3785 13.4426 24.2948 13.0499 24.1321C12.6572 23.9694 12.3004 23.731 11.9999 23.4305L11.8867 23.3172L11.3964 26.0899C11.3451 26.3814 11.2149 26.6533 11.0197 26.8759C10.8246 27.0985 10.5722 27.2634 10.2898 27.3525C10.0075 27.4415 9.7061 27.4515 9.4185 27.3812C9.13091 27.3108 8.86813 27.163 8.65877 26.9537L5.0442 23.3399C4.83485 23.1306 4.68695 22.8678 4.61663 22.5803C4.5463 22.2928 4.55623 21.9915 4.64533 21.7092C4.73444 21.4269 4.89931 21.1745 5.12198 20.9794C5.34466 20.7843 5.6166 20.6541 5.9082 20.6028L8.68304 20.1143L8.56817 19.9994C8.26754 19.699 8.02906 19.3423 7.86636 18.9497C7.70365 18.5571 7.61991 18.1363 7.61991 17.7113C7.61991 17.2863 7.70365 16.8655 7.86636 16.4729C8.02906 16.0803 8.26754 15.7236 8.56817 15.4231L15.4317 8.56109C15.7322 8.26053 16.089 8.0221 16.4816 7.85943C16.8743 7.69676 17.2952 7.61304 17.7203 7.61304C18.1454 7.61304 18.5663 7.69676 18.959 7.85943C19.3516 8.0221 19.7084 8.26053 20.0089 8.56109L20.1222 8.67433L20.6124 5.90654C20.664 5.61495 20.7946 5.34309 20.99 5.12059C21.1854 4.89808 21.4382 4.73348 21.7207 4.64471C22.0033 4.55594 22.3048 4.54642 22.5924 4.61717C22.88 4.68792 23.1426 4.83624 23.3517 5.04596L26.9566 8.66139C27.165 8.8709 27.3121 9.13351 27.3818 9.4207C27.4515 9.70789 27.4412 10.0087 27.352 10.2904C27.2628 10.5722 27.0981 10.8241 26.8758 11.0189C26.6535 11.2136 26.382 11.3438 26.0909 11.3952L23.329 11.8805ZM9.45482 16.9033H18.702L19.2538 18.2057L22.2968 15.4231C22.5956 15.1253 22.7657 14.7223 22.7708 14.3005H11.9789L9.71208 16.5684C9.61151 16.6682 9.52447 16.7808 9.4532 16.9033H9.45482ZM9.45482 18.5209C9.52439 18.6406 9.61015 18.7522 9.71208 18.8558L13.1438 22.2868C13.4472 22.59 13.8587 22.7604 14.2877 22.7604C14.7168 22.7604 15.1282 22.59 15.4317 22.2868L19.1999 18.5209H9.45482ZM21.8437 12.6828L18.865 9.70476C18.5616 9.4015 18.1501 9.23114 17.7211 9.23114C17.2921 9.23114 16.8806 9.4015 16.5772 9.70476L13.5969 12.6828H21.8437ZM6.18811 22.1962L9.80269 25.81L10.4175 22.3321C10.4355 22.2296 10.4285 22.1243 10.3971 22.025C10.3658 21.9258 10.3109 21.8356 10.2372 21.7621C10.1635 21.6886 10.0732 21.634 9.97392 21.6028C9.87461 21.5716 9.76925 21.5649 9.66678 21.5831L6.18811 22.1962ZM22.2062 6.18801L21.5913 9.66271C21.5734 9.76504 21.5804 9.87019 21.6117 9.96925C21.643 10.0683 21.6977 10.1584 21.7712 10.2319C21.8447 10.3053 21.9348 10.36 22.0338 10.3913C22.1329 10.4226 22.2381 10.4296 22.3405 10.4117L25.811 9.80344L22.2045 6.18801H22.2062Z" fill="#2D2C2A"/>
<g filter="url(#filter0_d_543_3303)">
<rect x="25.8047" y="26.3672" width="30.2281" height="1.70501" rx="0.852506" transform="rotate(-135 25.8047 26.3672)" fill="#2D2C2A"/>
</g>
<defs>
<filter id="filter0_d_543_3303" x="4.78125" y="4.14062" width="21.875" height="23.58" filterUnits="userSpaceOnUse" color-interpolation-filters="sRGB">
<feFlood flood-opacity="0" result="BackgroundImageFix"/>
<feColorMatrix in="SourceAlpha" type="matrix" values="0 0 0 0 0 0 0 0 0 0 0 0 0 0 0 0 0 0 127 0" result="hardAlpha"/>
<feOffset dy="1.70501"/>
<feComposite in2="hardAlpha" operator="out"/>
<feColorMatrix type="matrix" values="0 0 0 0 0.996078 0 0 0 0 0.988235 0 0 0 0 0.980392 0 0 0 1 0"/>
<feBlend mode="normal" in2="BackgroundImageFix" result="effect1_dropShadow_543_3303"/>
<feBlend mode="normal" in="SourceGraphic" in2="effect1_dropShadow_543_3303" result="shape"/>
</filter>
</defs>
</svg>
